<?xml version="1.0" encoding="UTF-8"?>
<svg id="Layer_2" data-name="Layer 2" xmlns="http://www.w3.org/2000/svg" viewBox="0 0 66.13 67.32">
  <defs>
    <style>
      .cls-1 {
        fill: #fff;
      }
    </style>
  </defs>
  <g id="Layer_1-2" data-name="Layer 1">
    <g>
      <path class="cls-1" d="M12.13,53.88c.57,2.53,4.43,2.55,6.45,1.45,5.54-3,13.05-14.42,18.77-18.16,3.12-3.93.34-4.25-2.25-7.25l7.26-7.22.68.03c1.63,3.28,6.69,4.9,7.06,8.66.17,1.75.22,7.79-.5,9.04l-27.56,26.35c-6.09.16-19.6,2.73-21.27-5.52-.59-2.9-.41-12.63-.13-15.88.46-5.34,8.02-10,11.5-13.71v22.21Z"/>
      <path class="cls-1" d="M62.87,1.92c1.22.8,2.43,3.12,2.64,4.58.38,2.71.48,15.43-.06,17.82-.68,3.03-8.92,7.93-10.39,11.33-2.16-1.52-.53-5.09-.47-7.21.1-3.63.5-11.88-.55-14.96-.92-2.69-4.19-2.98-6.21-1.28-4.88,6.22-14.99,12.43-19.22,18.72-2.71,4.04,2.41,5.61,2.51,7.49-1.85.76-6.24,6.88-7.99,6.02-1.58-2.18-6.7-5.52-7.03-7.99-.18-1.33-.15-7.79.28-8.75L42.6,1.48C44.75.18,54.62-.04,57.33.19c1.96.17,3.88.63,5.54,1.72Z"/>
      <path class="cls-1" d="M26.33,4.5c.69.65,3.09,2.66,3.44,3.19.27.4.57.36.26,1.16l-7.67,7.33-4.59-4.38c-4.89-.82-11.74.75-16.37-.1-2.76-.51-.83-7.56.57-9.37C4.12-.45,16.73-.19,20.24.34s3.91,2.11,6.09,4.16Z"/>
      <path class="cls-1" d="M45.3,52.42c1.11,1.01,2.16,2.05,3.14,3.19l17.14.24c1.41,3.42.14,9.56-3.75,10.78-2.64.83-12.47.83-15.5.48-3.92-.45-7.91-5.23-10.19-8.17l8.21-7.8c.43.33.57.92.96,1.27Z"/>
    </g>
  </g>
</svg>